<?xml version="1.0" encoding="utf-8"?>
<!-- Generator: Adobe Illustrator 19.1.0, SVG Export Plug-In . SVG Version: 6.00 Build 0)  -->
<svg version="1.1" id="Layer_1" xmlns="http://www.w3.org/2000/svg" xmlns:xlink="http://www.w3.org/1999/xlink" x="0px" y="0px"
	 viewBox="0 0 75 37.7" style="enable-background:new 0 0 75 37.7;" xml:space="preserve">
<style type="text/css">
	.st0{opacity:0.15;fill:#3D1102;}
	.st1{fill:#F4C253;}
	.st2{fill:#FFB18F;}
	.st3{fill:#F93838;}
</style>
<g>
	<path class="st0" d="M57.1,0v20.7c0,9.3-7.6,17-16.9,17h-3.1c-0.6,0-1.2,0-1.8-0.1c8.5-0.9,15.1-8.2,15.1-16.9V0H57.1z"/>
	<path class="st0" d="M2.1,0v3.2c0,7,5.7,12.8,12.7,12.8H62c7,0,13-5.8,13-12.8V0"/>
	<path class="st1" d="M0,0v3.2C0,10.3,5.7,16,12.8,16h47.1c7,0,12.7-5.8,12.7-12.8V0"/>
	<path class="st2" d="M18.1,0v21.7c0,8.8,7.2,15.9,15.9,15.9h5c8.8,0,15.9-7.2,15.9-15.9V0H18.1z"/>
	<rect x="55" y="0" class="st0" width="4.8" height="16"/>
	<path class="st0" d="M55,0v20.7c0,10.9-7.6,17-16.9,17H35c-0.6,0-1.2,0-1.8-0.1c8.5-0.9,15.1-8.2,15.1-16.9V0H55z"/>
	<rect x="27.8" y="20.3" class="st3" width="15.7" height="4.9"/>
</g>
</svg>
