<?xml version="1.0" encoding="utf-8"?>
<!-- Generator: Adobe Illustrator 19.1.0, SVG Export Plug-In . SVG Version: 6.00 Build 0)  -->
<svg version="1.1" xmlns="http://www.w3.org/2000/svg" xmlns:xlink="http://www.w3.org/1999/xlink" x="0px" y="0px"
	 viewBox="0 0 493.1 437.4" style="enable-background:new 0 0 493.1 437.4;" xml:space="preserve">
<style type="text/css">
	.st0{display:none;}
	.st1{display:inline;}
	.st2{fill:#F683AB;}
	.st3{fill:#FFFFFF;}
</style>
<g id="Layer_1" class="st0">
	<g class="st1">
		<path class="st2" d="M527,345.2c3.3,1.3,6.7,0.5,10.1,0.7c13.2,5.4,18.3,14.3,15.1,26.2c-1.1,5-1.8,10-3.3,14.8
			c-1.1,3.5-0.4,5.5,3,6.7c1.1,0.4,2.1,1,3.1,1.5c2,1.7,3.9,3.3,5.9,5c7.5,7.9,11.7,17.4,14.1,27.9c0.7,9.3-0.9,18.2-4.2,26.9
			c-4.3,7.1-9.3,13.5-15.8,18.8c-11.5,7.6-24.2,9.3-37.5,8.1c-5.7-2.7-12-4.3-17.4-7.8c-6.9-5.3-12.2-11.8-16.6-19.2
			c-2.6-8.8-5.6-17.5-3.8-26.8c1.7-10.1,6.2-18.8,12.5-26.7c0.4-0.3,0.8-0.5,1.2-0.8c-0.4-0.1-0.9-0.1-1.3-0.2c-6.6,0-13.3,0-19.9,0
			c-9-0.5-18.1-0.4-27.1,0c-9,0-18,0-26.9,0c-9.4-0.4-18.7-0.4-28.1,0c-9,0-18,0-26.9,0c-9-0.4-18-0.4-27.1,0c-6.6,0-13.3,0-19.9,0
			c-0.2,0.1-0.5,0.2-0.7,0.3c0.2,0.2,0.4,0.4,0.6,0.6c6.3,7.9,11,16.6,12.5,26.8c1.2,9.3-0.7,18.2-3.8,26.8
			c-4.5,7.3-9.5,14.1-16.5,19.3c-5.5,3.3-11.6,5.1-17.4,7.7c-12.5,1-24.5,0-35.5-6.9c-7.5-5.3-13.3-12.1-17.9-20
			c-2.9-8.7-5.1-17.6-4.1-26.9c1.7-10.8,7.1-19.8,13.9-28c2.2-1.7,4.3-3.7,6.7-5.1c2.8-1.6,3.2-3.5,2.3-6.5
			c-1.4-5.1-2.2-10.3-3.3-15.5l-50.6-246.1c-0.6-4.5-0.7-9.2-3.1-13.3c0.3-3.9-1-7.6-1.6-11.3c-0.3-2-1.1-3.3-3.6-3.2
			c-7.7,0.2-15.3,0.2-23,0.3c-9-0.5-18.1-0.4-27.1,0c-4.2-0.2-8.4-0.4-12.5-0.6c-5.5-2.8-10.3-6.2-13.4-11.7c-1.4-4.9-0.9-10-1.2-15
			c0.5-4.7-0.4-9.5,1.1-14.1c4.3-9.3,11.4-13.3,21.9-13.2c28,0.4,56,0.1,83.9,0.1c12.4,0,18.6,5.1,21.5,17.1
			c0.8,3.4,1.7,6.7,2.5,10.1c1.2,6.3,2.1,12.6,3.6,18.8c0.7,2.7-0.1,6,2.7,8.1l328,0c4.3,0.3,8.7,0.7,13,1c5.7,2.6,9.9,6.7,13,12
			c1.5,4.9,0.9,9.9,0.7,14.8c0,0,0.1,0.1,0.1,0.1L571.1,291c-1,3.7-2,7.4-2.9,11c-2.5,9.8-10.1,15.8-20.2,16l-240,0.2
			c-1.8,0-3.6,0-5.5-0.2c-3.7-0.4-5.1,0.5-3.9,4.7c1.6,5.9,2.6,11.9,3.5,18c0.6,3.7,1.8,5.8,5.9,4.5L527,345.2z"/>
	</g>
</g>
<g id="Layer_2">
	<path class="st3" d="M434.7,272.9c8.2,0,15.3-5.7,17.1-13.7l40.9-183.6c2.4-11-5.9-21.4-17.2-21.4L136.2,55l-8.4-36.2
		c-0.1-2.5-0.7-4.9-1.6-7.1l0,0l0,0C123,4.8,116.1,0,108.1,0H19.7C8.8,0,0,8.8,0,19.7v14.9c0,10.9,8.8,19.7,19.7,19.7h58.4h2.8
		l59.5,292.2c-14.9,8.3-25,24.2-25,42.5c0,26.8,21.8,48.6,48.6,48.6s48.6-21.8,48.6-48.6c0-13.8-5.7-26.2-15-35.1l182.5-1.9
		c-10.4,8.9-17,22.2-17,36.9c0,26.8,21.8,48.6,48.6,48.6s48.6-21.8,48.6-48.6c0-19.5-11.5-36.3-28-44l2.4-24.3
		c1.1-10.7-7.3-19.9-18.1-19.9H185.3l-4.4-26.9L434.7,272.9z"/>
</g>
</svg>
