<?xml version="1.0" encoding="utf-8"?>
<!-- Generator: Adobe Illustrator 19.1.0, SVG Export Plug-In . SVG Version: 6.00 Build 0)  -->
<svg version="1.1" id="Layer_1" xmlns="http://www.w3.org/2000/svg" xmlns:xlink="http://www.w3.org/1999/xlink" x="0px" y="0px"
	 viewBox="0 0 75 37.7" style="enable-background:new 0 0 75 37.7;" xml:space="preserve">
<style type="text/css">
	.st0{opacity:0.15;fill:#3D1102;}
	.st1{fill:#F4C253;}
	.st2{fill:#FFB18F;}
	.st3{fill:#F93838;}
</style>
<g>
	<path class="st0" d="M57.1,37.7V17c0-9.3-7.6-17-16.9-17h-3.1c-0.6,0-1.2,0-1.8,0.1C43.8,1,50.4,8.3,50.4,17v20.7H57.1z"/>
	<path class="st0" d="M2.1,37.7v-3.2c0-7,5.7-12.8,12.7-12.8H62c7,0,13,5.8,13,12.8v3.2"/>
	<path class="st1" d="M0,37.7v-3.2c0-7,5.7-12.8,12.7-12.8h47.1c7,0,12.7,5.8,12.7,12.8v3.2"/>
	<path class="st2" d="M18.1,37.7V15.9C18.1,7.2,25.2,0,34,0h5C47.8,0,55,7.2,55,15.9v21.7H18.1z"/>
	<rect x="55" y="21.7" class="st0" width="4.8" height="16"/>
	<path class="st0" d="M55,37.7V17C55,6.1,47.4,0,38.1,0H35c-0.6,0-1.2,0-1.8,0.1C41.6,1,48.3,8.3,48.3,17v20.7H55z"/>
	<rect x="27.8" y="12.4" class="st3" width="15.7" height="4.9"/>
	<rect x="33.2" y="7" class="st3" width="4.9" height="15.7"/>
</g>
</svg>
